<svg width="89" height="50" viewBox="0 0 89 50" fill="none" xmlns="http://www.w3.org/2000/svg">
<g filter="url(#filter0_dd_1_608)">
<path d="M17.1462 13.1028H17.1433C14.7453 13.1028 12.8013 14.8304 12.8013 16.9615V16.964C12.8013 19.0951 14.7453 20.8227 17.1433 20.8227H17.1462C19.5442 20.8227 21.4882 19.0951 21.4882 16.964V16.9615C21.4882 14.8304 19.5442 13.1028 17.1462 13.1028Z" fill="#AFB1B8"/>
<path d="M49.195 11.8693C49.1882 8.90929 47.8623 6.07223 45.5074 3.97895C43.1525 1.88568 39.9604 0.706672 36.6297 0.699951C33.298 0.705328 30.1045 1.88374 27.7484 3.97716C25.3922 6.07058 24.0655 8.90841 24.0587 11.8693V28.1921C24.0587 28.1921 49.1922 25.7044 49.195 11.8718V11.8693Z" fill="#AFB1B8"/>
<path d="M4 33.5495C4.00604 35.6091 4.92915 37.5828 6.56761 39.0394C8.20607 40.496 10.4267 41.317 12.7442 41.3231C15.0612 41.317 17.2814 40.4963 18.9197 39.0403C20.5581 37.5843 21.4816 35.6112 21.4884 33.552V22.1943C21.4884 22.1943 4 23.9266 4 33.5495ZM12.7442 35.5844C12.2913 35.5844 11.8486 35.4651 11.472 35.2415C11.0955 35.0179 10.802 34.7001 10.6287 34.3282C10.4554 33.9564 10.41 33.5472 10.4984 33.1525C10.5867 32.7577 10.8048 32.3951 11.125 32.1105C11.4453 31.8259 11.8533 31.6321 12.2975 31.5536C12.7416 31.4751 13.202 31.5154 13.6205 31.6694C14.0389 31.8234 14.3965 32.0843 14.6481 32.4189C14.8997 32.7535 15.034 33.147 15.034 33.5495C15.0351 33.8173 14.9767 34.0828 14.8622 34.3306C14.7476 34.5783 14.5791 34.8036 14.3664 34.9933C14.1536 35.1831 13.9008 35.3337 13.6224 35.4364C13.3441 35.5392 13.0456 35.5921 12.7442 35.5921V35.5844Z" fill="#AFB1B8"/>
<path d="M28.7302 31.9413V36.2069H27.8513V31.9413H28.7302ZM30.4294 33.7635V34.4491H28.4899V33.7635H30.4294ZM30.6345 31.9413V32.6298H28.4899V31.9413H30.6345ZM34.6481 33.9745V34.1766C34.6481 34.5009 34.6042 34.7919 34.5163 35.0497C34.4284 35.3075 34.3044 35.5272 34.1442 35.7089C33.9841 35.8885 33.7927 36.0262 33.57 36.1219C33.3493 36.2177 33.1042 36.2655 32.8347 36.2655C32.5671 36.2655 32.322 36.2177 32.0993 36.1219C31.8786 36.0262 31.6872 35.8885 31.5251 35.7089C31.363 35.5272 31.237 35.3075 31.1472 35.0497C31.0593 34.7919 31.0153 34.5009 31.0153 34.1766V33.9745C31.0153 33.6483 31.0593 33.3573 31.1472 33.1014C31.235 32.8436 31.3591 32.6239 31.5192 32.4423C31.6813 32.2606 31.8727 32.1219 32.0934 32.0262C32.3161 31.9305 32.5612 31.8827 32.8288 31.8827C33.0983 31.8827 33.3434 31.9305 33.5641 32.0262C33.7868 32.1219 33.9782 32.2606 34.1384 32.4423C34.3005 32.6239 34.4255 32.8436 34.5134 33.1014C34.6032 33.3573 34.6481 33.6483 34.6481 33.9745ZM33.7604 34.1766V33.9686C33.7604 33.7421 33.7399 33.5428 33.6989 33.371C33.6579 33.1991 33.5974 33.0546 33.5173 32.9374C33.4372 32.8202 33.3395 32.7323 33.2243 32.6737C33.1091 32.6132 32.9772 32.5829 32.8288 32.5829C32.6804 32.5829 32.5485 32.6132 32.4333 32.6737C32.32 32.7323 32.2233 32.8202 32.1432 32.9374C32.0651 33.0546 32.0056 33.1991 31.9645 33.371C31.9235 33.5428 31.903 33.7421 31.903 33.9686V34.1766C31.903 34.4012 31.9235 34.6005 31.9645 34.7743C32.0056 34.9462 32.0661 35.0917 32.1462 35.2108C32.2263 35.328 32.3239 35.4169 32.4391 35.4774C32.5544 35.538 32.6862 35.5682 32.8347 35.5682C32.9831 35.5682 33.1149 35.538 33.2302 35.4774C33.3454 35.4169 33.4421 35.328 33.5202 35.2108C33.5983 35.0917 33.6579 34.9462 33.6989 34.7743C33.7399 34.6005 33.7604 34.4012 33.7604 34.1766ZM37.5016 35.0907C37.5016 35.0145 37.4899 34.9462 37.4665 34.8856C37.445 34.8231 37.404 34.7665 37.3434 34.7157C37.2829 34.663 37.1979 34.6112 37.0886 34.5604C36.9792 34.5096 36.8376 34.4569 36.6638 34.4022C36.4704 34.3397 36.2868 34.2694 36.113 34.1913C35.9411 34.1132 35.7888 34.0223 35.6559 33.9188C35.5251 33.8134 35.4216 33.6913 35.3454 33.5526C35.2712 33.4139 35.2341 33.2528 35.2341 33.0692C35.2341 32.8915 35.2731 32.7303 35.3513 32.5858C35.4294 32.4393 35.5388 32.3143 35.6794 32.2108C35.82 32.1053 35.986 32.0243 36.1774 31.9677C36.3708 31.911 36.5827 31.8827 36.8132 31.8827C37.1276 31.8827 37.402 31.9393 37.6364 32.0526C37.8708 32.1659 38.0524 32.3212 38.1813 32.5184C38.3122 32.7157 38.3776 32.9413 38.3776 33.1952H37.5046C37.5046 33.0702 37.4782 32.9608 37.4255 32.8671C37.3747 32.7714 37.2966 32.6962 37.1911 32.6415C37.0876 32.5868 36.9567 32.5594 36.7985 32.5594C36.6462 32.5594 36.5192 32.5829 36.4177 32.6298C36.3161 32.6747 36.2399 32.7362 36.1891 32.8143C36.1384 32.8905 36.113 32.9764 36.113 33.0721C36.113 33.1444 36.1306 33.2098 36.1657 33.2684C36.2028 33.327 36.2575 33.3817 36.3298 33.4325C36.402 33.4833 36.4909 33.5311 36.5964 33.576C36.7018 33.621 36.8239 33.6649 36.9626 33.7079C37.195 33.7782 37.3991 33.8573 37.5749 33.9452C37.7526 34.0331 37.9011 34.1317 38.0202 34.2411C38.1393 34.3505 38.2292 34.4745 38.2897 34.6132C38.3503 34.7518 38.3806 34.9091 38.3806 35.0848C38.3806 35.2704 38.3444 35.4364 38.2722 35.5829C38.1999 35.7294 38.0954 35.8534 37.9587 35.955C37.822 36.0565 37.6589 36.1337 37.4694 36.1864C37.28 36.2391 37.0681 36.2655 36.8337 36.2655C36.6227 36.2655 36.4147 36.2382 36.2097 36.1835C36.0046 36.1268 35.8181 36.0419 35.6501 35.9286C35.4841 35.8153 35.3513 35.6708 35.2516 35.495C35.152 35.3192 35.1022 35.1112 35.1022 34.871H35.9841C35.9841 35.0038 36.0046 35.1161 36.0456 35.2079C36.0866 35.2997 36.1442 35.3739 36.2184 35.4305C36.2946 35.4872 36.3845 35.5282 36.488 35.5536C36.5934 35.579 36.7087 35.5917 36.8337 35.5917C36.986 35.5917 37.111 35.5702 37.2087 35.5272C37.3083 35.4843 37.3815 35.4247 37.4284 35.3485C37.4772 35.2723 37.5016 35.1864 37.5016 35.0907ZM40.8854 31.9413V36.2069H40.0095V31.9413H40.8854ZM42.1979 31.9413V32.6298H38.7175V31.9413H42.1979ZM45.5612 35.5214V36.2069H43.2907V35.5214H45.5612ZM43.5778 31.9413V36.2069H42.6989V31.9413H43.5778ZM45.2653 33.6786V34.3466H43.2907V33.6786H45.2653ZM45.5583 31.9413V32.6298H43.2907V31.9413H45.5583ZM46.0739 31.9413H47.6647C47.9909 31.9413 48.2712 31.9901 48.5056 32.0878C48.7419 32.1854 48.9235 32.33 49.0505 32.5214C49.1774 32.7128 49.2409 32.9481 49.2409 33.2274C49.2409 33.4559 49.2018 33.6522 49.1237 33.8163C49.0475 33.9784 48.9391 34.1141 48.7985 34.2235C48.6599 34.3309 48.4968 34.4169 48.3093 34.4813L48.0309 34.6278H46.6481L46.6423 33.9423H47.6706C47.8249 33.9423 47.9528 33.9149 48.0544 33.8602C48.1559 33.8055 48.2321 33.7294 48.2829 33.6317C48.3356 33.5341 48.362 33.4208 48.362 33.2919C48.362 33.1552 48.3366 33.037 48.2858 32.9374C48.235 32.8378 48.1579 32.7616 48.0544 32.7089C47.9509 32.6561 47.821 32.6298 47.6647 32.6298H46.9528V36.2069H46.0739V31.9413ZM48.4587 36.2069L47.486 34.3055L48.4147 34.2997L49.3991 36.1659V36.2069H48.4587ZM53.0729 34.6864H51.986V34.0009H53.0729C53.2409 34.0009 53.3776 33.9735 53.4831 33.9188C53.5886 33.8622 53.6657 33.7841 53.7145 33.6844C53.7634 33.5848 53.7878 33.4725 53.7878 33.3475C53.7878 33.2206 53.7634 33.1024 53.7145 32.993C53.6657 32.8837 53.5886 32.7958 53.4831 32.7294C53.3776 32.663 53.2409 32.6298 53.0729 32.6298H52.2907V36.2069H51.4118V31.9413H53.0729C53.4069 31.9413 53.6931 32.0018 53.9313 32.1229C54.1716 32.2421 54.3552 32.4071 54.4821 32.618C54.6091 32.829 54.6725 33.0702 54.6725 33.3417C54.6725 33.6171 54.6091 33.8553 54.4821 34.0565C54.3552 34.2577 54.1716 34.413 53.9313 34.5223C53.6931 34.6317 53.4069 34.6864 53.0729 34.6864ZM58.1413 35.5214V36.2069H55.8708V35.5214H58.1413ZM56.1579 31.9413V36.2069H55.279V31.9413H56.1579ZM57.8454 33.6786V34.3466H55.8708V33.6786H57.8454ZM58.1384 31.9413V32.6298H55.8708V31.9413H58.1384ZM60.6198 31.9413V36.2069H59.7438V31.9413H60.6198ZM61.9323 31.9413V32.6298H58.4518V31.9413H61.9323ZM65.2956 35.5214V36.2069H63.0251V35.5214H65.2956ZM63.3122 31.9413V36.2069H62.4333V31.9413H63.3122ZM64.9997 33.6786V34.3466H63.0251V33.6786H64.9997ZM65.2927 31.9413V32.6298H63.0251V31.9413H65.2927ZM65.8083 31.9413H67.3991C67.7253 31.9413 68.0056 31.9901 68.2399 32.0878C68.4763 32.1854 68.6579 32.33 68.7849 32.5214C68.9118 32.7128 68.9753 32.9481 68.9753 33.2274C68.9753 33.4559 68.9362 33.6522 68.8581 33.8163C68.7819 33.9784 68.6735 34.1141 68.5329 34.2235C68.3942 34.3309 68.2311 34.4169 68.0436 34.4813L67.7653 34.6278H66.3825L66.3766 33.9423H67.405C67.5593 33.9423 67.6872 33.9149 67.7888 33.8602C67.8903 33.8055 67.9665 33.7294 68.0173 33.6317C68.07 33.5341 68.0964 33.4208 68.0964 33.2919C68.0964 33.1552 68.071 33.037 68.0202 32.9374C67.9694 32.8378 67.8923 32.7616 67.7888 32.7089C67.6852 32.6561 67.5554 32.6298 67.3991 32.6298H66.6872V36.2069H65.8083V31.9413ZM68.1931 36.2069L67.2204 34.3055L68.1491 34.2997L69.1335 36.1659V36.2069H68.1931ZM71.8727 35.0907C71.8727 35.0145 71.861 34.9462 71.8376 34.8856C71.8161 34.8231 71.7751 34.7665 71.7145 34.7157C71.654 34.663 71.569 34.6112 71.4597 34.5604C71.3503 34.5096 71.2087 34.4569 71.0349 34.4022C70.8415 34.3397 70.6579 34.2694 70.4841 34.1913C70.3122 34.1132 70.1599 34.0223 70.027 33.9188C69.8962 33.8134 69.7927 33.6913 69.7165 33.5526C69.6423 33.4139 69.6052 33.2528 69.6052 33.0692C69.6052 32.8915 69.6442 32.7303 69.7224 32.5858C69.8005 32.4393 69.9099 32.3143 70.0505 32.2108C70.1911 32.1053 70.3571 32.0243 70.5485 31.9677C70.7419 31.911 70.9538 31.8827 71.1843 31.8827C71.4987 31.8827 71.7731 31.9393 72.0075 32.0526C72.2419 32.1659 72.4235 32.3212 72.5524 32.5184C72.6833 32.7157 72.7487 32.9413 72.7487 33.1952H71.8757C71.8757 33.0702 71.8493 32.9608 71.7966 32.8671C71.7458 32.7714 71.6677 32.6962 71.5622 32.6415C71.4587 32.5868 71.3278 32.5594 71.1696 32.5594C71.0173 32.5594 70.8903 32.5829 70.7888 32.6298C70.6872 32.6747 70.611 32.7362 70.5602 32.8143C70.5095 32.8905 70.4841 32.9764 70.4841 33.0721C70.4841 33.1444 70.5016 33.2098 70.5368 33.2684C70.5739 33.327 70.6286 33.3817 70.7009 33.4325C70.7731 33.4833 70.862 33.5311 70.9675 33.576C71.0729 33.621 71.195 33.6649 71.3337 33.7079C71.5661 33.7782 71.7702 33.8573 71.946 33.9452C72.1237 34.0331 72.2722 34.1317 72.3913 34.2411C72.5104 34.3505 72.6003 34.4745 72.6608 34.6132C72.7214 34.7518 72.7516 34.9091 72.7516 35.0848C72.7516 35.2704 72.7155 35.4364 72.6432 35.5829C72.571 35.7294 72.4665 35.8534 72.3298 35.955C72.1931 36.0565 72.03 36.1337 71.8405 36.1864C71.6511 36.2391 71.4391 36.2655 71.2048 36.2655C70.9938 36.2655 70.7858 36.2382 70.5807 36.1835C70.3757 36.1268 70.1891 36.0419 70.0212 35.9286C69.8552 35.8153 69.7224 35.6708 69.6227 35.495C69.5231 35.3192 69.4733 35.1112 69.4733 34.871H70.3552C70.3552 35.0038 70.3757 35.1161 70.4167 35.2079C70.4577 35.2997 70.5153 35.3739 70.5895 35.4305C70.6657 35.4872 70.7556 35.5282 70.8591 35.5536C70.9645 35.579 71.0798 35.5917 71.2048 35.5917C71.3571 35.5917 71.4821 35.5702 71.5798 35.5272C71.6794 35.4843 71.7526 35.4247 71.7995 35.3485C71.8483 35.2723 71.8727 35.1864 71.8727 35.0907Z" fill="#AFB1B8"/>
</g>
<defs>
<filter id="filter0_dd_1_608" x="0" y="0.699951" width="76.7516" height="48.623" filterUnits="userSpaceOnUse" color-interpolation-filters="sRGB">
<feFlood flood-opacity="0" result="BackgroundImageFix"/>
<feColorMatrix in="SourceAlpha" type="matrix" values="0 0 0 0 0 0 0 0 0 0 0 0 0 0 0 0 0 0 127 0" result="hardAlpha"/>
<feOffset dy="4"/>
<feGaussianBlur stdDeviation="2"/>
<feComposite in2="hardAlpha" operator="out"/>
<feColorMatrix type="matrix" values="0 0 0 0 0 0 0 0 0 0 0 0 0 0 0 0 0 0 0.25 0"/>
<feBlend mode="normal" in2="BackgroundImageFix" result="effect1_dropShadow_1_608"/>
<feColorMatrix in="SourceAlpha" type="matrix" values="0 0 0 0 0 0 0 0 0 0 0 0 0 0 0 0 0 0 127 0" result="hardAlpha"/>
<feOffset dy="4"/>
<feGaussianBlur stdDeviation="2"/>
<feComposite in2="hardAlpha" operator="out"/>
<feColorMatrix type="matrix" values="0 0 0 0 0 0 0 0 0 0 0 0 0 0 0 0 0 0 0.25 0"/>
<feBlend mode="normal" in2="effect1_dropShadow_1_608" result="effect2_dropShadow_1_608"/>
<feBlend mode="normal" in="SourceGraphic" in2="effect2_dropShadow_1_608" result="shape"/>
</filter>
</defs>
</svg>
